<svg xmlns="http://www.w3.org/2000/svg" viewBox="0 0 980 420" role="img" aria-labelledby="title desc">
  <title id="title">Đồ thị thay đổi khối lượng mẫu NaOH theo thời gian</title>
  <desc id="desc">Đồ thị biểu diễn khối lượng NaOH tăng dần theo thời gian tại các mốc 0, 1, 5, 10, 20, 30 và 60 phút.</desc>
  <defs>
    <style>
      .axis { stroke: #111827; stroke-width: 3; }
      .grid { stroke: #dbe4f0; stroke-width: 2; }
      .curve { stroke: #8b1e3f; stroke-width: 4; fill: none; }
      .point { fill: #8b1e3f; stroke: #f8fafc; stroke-width: 2; }
      .text { font: 21px 'Segoe UI', Arial, sans-serif; fill: #111827; }
      .small { font: 18px 'Segoe UI', Arial, sans-serif; fill: #334155; }
      .title { font: 700 24px 'Segoe UI', Arial, sans-serif; fill: #2563eb; }
    </style>
  </defs>
  <text x="300" y="34" class="title">Đồ thị thay đổi khối lượng NaOH theo thời gian</text>
  <g transform="translate(120,50)">
    <line x1="80" y1="300" x2="760" y2="300" class="axis" />
    <line x1="80" y1="300" x2="80" y2="30" class="axis" />
    <g class="grid">
      <line x1="180" y1="300" x2="180" y2="40" />
      <line x1="280" y1="300" x2="280" y2="40" />
      <line x1="380" y1="300" x2="380" y2="40" />
      <line x1="480" y1="300" x2="480" y2="40" />
      <line x1="580" y1="300" x2="580" y2="40" />
      <line x1="680" y1="300" x2="680" y2="40" />
      <line x1="80" y1="250" x2="720" y2="250" />
      <line x1="80" y1="200" x2="720" y2="200" />
      <line x1="80" y1="150" x2="720" y2="150" />
      <line x1="80" y1="100" x2="720" y2="100" />
      <line x1="80" y1="50" x2="720" y2="50" />
    </g>
    <path class="curve" d="M80 300 L94 269 L130 206 L180 161 L280 117 L380 86 L480 55 L680 15" />
    <circle class="point" cx="80" cy="300" r="6" />
    <circle class="point" cx="94" cy="269" r="6" />
    <circle class="point" cx="130" cy="206" r="6" />
    <circle class="point" cx="180" cy="161" r="6" />
    <circle class="point" cx="280" cy="117" r="6" />
    <circle class="point" cx="380" cy="86" r="6" />
    <circle class="point" cx="480" cy="55" r="6" />
    <circle class="point" cx="680" cy="15" r="6" />
    <text x="62" y="321" class="small">0</text>
    <text x="168" y="321" class="small">10</text>
    <text x="268" y="321" class="small">20</text>
    <text x="368" y="321" class="small">30</text>
    <text x="468" y="321" class="small">40</text>
    <text x="568" y="321" class="small">50</text>
    <text x="668" y="321" class="small">60</text>
    <text x="24" y="304" class="small">10</text>
    <text x="24" y="254" class="small">11</text>
    <text x="24" y="204" class="small">12</text>
    <text x="24" y="154" class="small">13</text>
    <text x="24" y="104" class="small">14</text>
    <text x="24" y="54" class="small">15</text>
    <text x="320" y="374" class="text">Thời gian t (phút)</text>
    <text x="-6" y="200" transform="rotate(-90 -6 200)" class="text">Khối lượng m (g)</text>
    <text x="96" y="292" class="small">(1; 10,816)</text>
    <text x="136" y="197" class="small">(5; 11,592)</text>
    <text x="188" y="154" class="small">(10; 12,317)</text>
    <text x="286" y="111" class="small">(20; 13,043)</text>
    <text x="386" y="80" class="small">(30; 13,662)</text>
    <text x="590" y="20" class="small">(60; 15,541)</text>
    <text x="86" y="317" class="small">(0; 10,350)</text>
  </g>
</svg>
