<svg xmlns="http://www.w3.org/2000/svg" viewBox="0 0 960 560" role="img" aria-labelledby="title desc">
  <title id="title">Do thi hieu suat tong hop ammonia</title>
  <desc id="desc">Do thi hieu suat tong hop ammonia theo ap suat voi cac duong cong 350 do C den 550 do C.</desc>
  <defs>
    <style>
      .axis { stroke: #111827; stroke-width: 4; stroke-linecap: round; }
      .grid { stroke: #cbd5e1; stroke-width: 2; }
      .curve1 { stroke: #1d4ed8; stroke-width: 5; fill: none; stroke-dasharray: 10 8; }
      .curve2 { stroke: #2563eb; stroke-width: 5; fill: none; stroke-dasharray: 12 10; }
      .curve3 { stroke: #334155; stroke-width: 5; fill: none; }
      .curve4 { stroke: #475569; stroke-width: 5; fill: none; stroke-dasharray: 7 7; }
      .curve5 { stroke: #64748b; stroke-width: 5; fill: none; stroke-dasharray: 3 8; }
      .text { font: 24px 'Segoe UI', Arial, sans-serif; fill: #0f172a; }
      .small { font: 20px 'Segoe UI', Arial, sans-serif; fill: #334155; }
      .title { font: 700 28px 'Segoe UI', Arial, sans-serif; fill: #2563eb; }
    </style>
  </defs>
  <text x="28" y="38" class="title">NAP 3 - Do thi hieu suat tong hop ammonia</text>
  <text x="120" y="92" class="text">N2(g) + 3H2(g) ⇌ 2NH3(g)</text>
  <text x="570" y="92" class="text">ΔrH°298 = -91,8 kJ</text>

  <g transform="translate(90,120)">
    <line x1="120" y1="360" x2="760" y2="360" class="axis" />
    <line x1="120" y1="360" x2="120" y2="40" class="axis" />
    <polygon points="760,360 742,352 742,368" fill="#111827" />
    <polygon points="120,40 112,58 128,58" fill="#111827" />

    <g class="grid">
      <line x1="200" y1="360" x2="200" y2="80" />
      <line x1="280" y1="360" x2="280" y2="80" />
      <line x1="360" y1="360" x2="360" y2="80" />
      <line x1="440" y1="360" x2="440" y2="80" />
      <line x1="520" y1="360" x2="520" y2="80" />
      <line x1="600" y1="360" x2="600" y2="80" />
      <line x1="680" y1="360" x2="680" y2="80" />
      <line x1="120" y1="320" x2="680" y2="320" />
      <line x1="120" y1="280" x2="680" y2="280" />
      <line x1="120" y1="240" x2="680" y2="240" />
      <line x1="120" y1="200" x2="680" y2="200" />
      <line x1="120" y1="160" x2="680" y2="160" />
      <line x1="120" y1="120" x2="680" y2="120" />
      <line x1="120" y1="80" x2="680" y2="80" />
    </g>

    <path d="M120 360 C160 250 250 120 420 92 C530 74 620 70 680 72" class="curve1" />
    <path d="M120 360 C160 270 250 165 420 135 C535 122 625 120 680 122" class="curve2" />
    <path d="M120 360 C160 290 250 200 420 170 C535 160 625 158 680 160" class="curve3" />
    <path d="M120 360 C160 310 250 235 420 220 C535 214 625 212 680 214" class="curve4" />
    <path d="M120 360 C160 326 250 270 420 258 C535 253 625 251 680 252" class="curve5" />

    <text x="695" y="76" class="text">350°C</text>
    <text x="695" y="126" class="text">400°C</text>
    <text x="695" y="162" class="text">450°C</text>
    <text x="695" y="216" class="text">500°C</text>
    <text x="695" y="255" class="text">550°C</text>

    <text x="110" y="388" class="small">0</text>
    <text x="190" y="388" class="small">100</text>
    <text x="270" y="388" class="small">200</text>
    <text x="350" y="388" class="small">300</text>
    <text x="430" y="388" class="small">400</text>
    <text x="510" y="388" class="small">500</text>

    <text x="88" y="325" class="small">10</text>
    <text x="88" y="285" class="small">20</text>
    <text x="88" y="245" class="small">30</text>
    <text x="88" y="205" class="small">40</text>
    <text x="88" y="165" class="small">50</text>
    <text x="88" y="125" class="small">60</text>
    <text x="88" y="85" class="small">70</text>

    <text x="348" y="442" class="text">Ap suat (atm)</text>
    <text x="28" y="226" transform="rotate(-90 28 226)" class="text">Hieu suat tong hop ammonia (%)</text>
  </g>
</svg>
